<mxfile host="app.diagrams.net" modified="2023-07-23T17:16:20.609Z" agent="Mozilla/5.0 (Windows NT 10.0; Win64; x64) AppleWebKit/537.36 (KHTML, like Gecko) Chrome/114.0.0.0 Safari/537.36" etag="XD56lPyUMhcOhVMKEF2A" version="21.6.5" type="github">
  <diagram name="Page-1" id="gNQH_gU16ZZKBDsQbHNw">
    <mxGraphModel dx="2266" dy="837" grid="1" gridSize="10" guides="1" tooltips="1" connect="1" arrows="1" fold="1" page="1" pageScale="1" pageWidth="850" pageHeight="1100" math="0" shadow="0">
      <root>
        <mxCell id="0" />
        <mxCell id="1" parent="0" />
        <mxCell id="5ViKv1JCg8p07AZtkxQX-1" value="createShortURL/new Paste" style="rounded=1;whiteSpace=wrap;html=1;" parent="1" vertex="1">
          <mxGeometry x="40" y="350" width="100" height="60" as="geometry" />
        </mxCell>
        <mxCell id="5ViKv1JCg8p07AZtkxQX-4" value="Cassandra" style="shape=cylinder3;whiteSpace=wrap;html=1;boundedLbl=1;backgroundOutline=1;size=15;" parent="1" vertex="1">
          <mxGeometry x="820" y="340" width="60" height="190" as="geometry" />
        </mxCell>
        <mxCell id="5ViKv1JCg8p07AZtkxQX-5" value="URL/Paste Service" style="rounded=1;whiteSpace=wrap;html=1;" parent="1" vertex="1">
          <mxGeometry x="500" y="350" width="120" height="60" as="geometry" />
        </mxCell>
        <mxCell id="5ViKv1JCg8p07AZtkxQX-7" value="" style="endArrow=classic;html=1;rounded=0;exitX=1;exitY=0.5;exitDx=0;exitDy=0;entryX=-0.013;entryY=0.212;entryDx=0;entryDy=0;entryPerimeter=0;" parent="1" source="5ViKv1JCg8p07AZtkxQX-5" target="5ViKv1JCg8p07AZtkxQX-41" edge="1">
          <mxGeometry width="50" height="50" relative="1" as="geometry">
            <mxPoint x="640" y="430" as="sourcePoint" />
            <mxPoint x="690" y="380" as="targetPoint" />
          </mxGeometry>
        </mxCell>
        <mxCell id="5ViKv1JCg8p07AZtkxQX-8" value="write" style="edgeLabel;html=1;align=center;verticalAlign=middle;resizable=0;points=[];" parent="5ViKv1JCg8p07AZtkxQX-7" vertex="1" connectable="0">
          <mxGeometry x="0.1612" y="-3" relative="1" as="geometry">
            <mxPoint as="offset" />
          </mxGeometry>
        </mxCell>
        <mxCell id="5ViKv1JCg8p07AZtkxQX-9" value="shortURL/getPaste" style="rounded=1;whiteSpace=wrap;html=1;" parent="1" vertex="1">
          <mxGeometry x="40" y="470" width="100" height="60" as="geometry" />
        </mxCell>
        <mxCell id="5ViKv1JCg8p07AZtkxQX-11" value="URL Redirecting Service" style="rounded=1;whiteSpace=wrap;html=1;" parent="1" vertex="1">
          <mxGeometry x="500" y="470" width="120" height="60" as="geometry" />
        </mxCell>
        <mxCell id="5ViKv1JCg8p07AZtkxQX-14" value="read" style="endArrow=classic;html=1;rounded=0;entryX=1;entryY=0.5;entryDx=0;entryDy=0;" parent="1" target="5ViKv1JCg8p07AZtkxQX-11" edge="1">
          <mxGeometry width="50" height="50" relative="1" as="geometry">
            <mxPoint x="710" y="500" as="sourcePoint" />
            <mxPoint x="740" y="520" as="targetPoint" />
          </mxGeometry>
        </mxCell>
        <mxCell id="5ViKv1JCg8p07AZtkxQX-18" value="Key Generation Service" style="rounded=1;whiteSpace=wrap;html=1;" parent="1" vertex="1">
          <mxGeometry x="500" y="190" width="120" height="60" as="geometry" />
        </mxCell>
        <mxCell id="5ViKv1JCg8p07AZtkxQX-21" value="Load Balancer" style="rounded=1;whiteSpace=wrap;html=1;" parent="1" vertex="1">
          <mxGeometry x="180" y="350" width="100" height="60" as="geometry" />
        </mxCell>
        <mxCell id="5ViKv1JCg8p07AZtkxQX-22" value="" style="endArrow=classic;html=1;rounded=0;exitX=1;exitY=0.5;exitDx=0;exitDy=0;entryX=0;entryY=0.5;entryDx=0;entryDy=0;" parent="1" source="5ViKv1JCg8p07AZtkxQX-21" target="5ViKv1JCg8p07AZtkxQX-28" edge="1">
          <mxGeometry width="50" height="50" relative="1" as="geometry">
            <mxPoint x="320" y="440" as="sourcePoint" />
            <mxPoint x="340" y="380" as="targetPoint" />
          </mxGeometry>
        </mxCell>
        <mxCell id="5ViKv1JCg8p07AZtkxQX-27" value="" style="endArrow=classic;html=1;rounded=0;exitX=1;exitY=0.5;exitDx=0;exitDy=0;entryX=0;entryY=0.5;entryDx=0;entryDy=0;" parent="1" source="5ViKv1JCg8p07AZtkxQX-1" target="5ViKv1JCg8p07AZtkxQX-21" edge="1">
          <mxGeometry width="50" height="50" relative="1" as="geometry">
            <mxPoint x="190" y="280" as="sourcePoint" />
            <mxPoint x="240" y="230" as="targetPoint" />
          </mxGeometry>
        </mxCell>
        <mxCell id="5ViKv1JCg8p07AZtkxQX-28" value="Front End Service" style="rounded=1;whiteSpace=wrap;html=1;" parent="1" vertex="1">
          <mxGeometry x="345" y="350" width="80" height="60" as="geometry" />
        </mxCell>
        <mxCell id="5ViKv1JCg8p07AZtkxQX-29" value="Load Balancer" style="rounded=1;whiteSpace=wrap;html=1;" parent="1" vertex="1">
          <mxGeometry x="180" y="470" width="100" height="60" as="geometry" />
        </mxCell>
        <mxCell id="5ViKv1JCg8p07AZtkxQX-30" value="" style="endArrow=classic;html=1;rounded=0;exitX=1;exitY=0.5;exitDx=0;exitDy=0;entryX=0;entryY=0.5;entryDx=0;entryDy=0;" parent="1" source="5ViKv1JCg8p07AZtkxQX-29" target="5ViKv1JCg8p07AZtkxQX-32" edge="1">
          <mxGeometry width="50" height="50" relative="1" as="geometry">
            <mxPoint x="320" y="560" as="sourcePoint" />
            <mxPoint x="340" y="500" as="targetPoint" />
          </mxGeometry>
        </mxCell>
        <mxCell id="5ViKv1JCg8p07AZtkxQX-31" value="" style="endArrow=classic;html=1;rounded=0;exitX=1;exitY=0.5;exitDx=0;exitDy=0;entryX=0;entryY=0.5;entryDx=0;entryDy=0;" parent="1" target="5ViKv1JCg8p07AZtkxQX-29" edge="1">
          <mxGeometry width="50" height="50" relative="1" as="geometry">
            <mxPoint x="140" y="500" as="sourcePoint" />
            <mxPoint x="240" y="350" as="targetPoint" />
          </mxGeometry>
        </mxCell>
        <mxCell id="5ViKv1JCg8p07AZtkxQX-32" value="Front End Service" style="rounded=1;whiteSpace=wrap;html=1;" parent="1" vertex="1">
          <mxGeometry x="345" y="470" width="80" height="60" as="geometry" />
        </mxCell>
        <mxCell id="5ViKv1JCg8p07AZtkxQX-33" value="" style="endArrow=classic;html=1;rounded=0;exitX=1;exitY=0.5;exitDx=0;exitDy=0;entryX=0;entryY=0.5;entryDx=0;entryDy=0;" parent="1" source="5ViKv1JCg8p07AZtkxQX-28" target="5ViKv1JCg8p07AZtkxQX-5" edge="1">
          <mxGeometry width="50" height="50" relative="1" as="geometry">
            <mxPoint x="440" y="480" as="sourcePoint" />
            <mxPoint x="490" y="430" as="targetPoint" />
          </mxGeometry>
        </mxCell>
        <mxCell id="5ViKv1JCg8p07AZtkxQX-34" value="" style="endArrow=classic;html=1;rounded=0;exitX=1;exitY=0.5;exitDx=0;exitDy=0;entryX=0;entryY=0.5;entryDx=0;entryDy=0;" parent="1" source="5ViKv1JCg8p07AZtkxQX-32" target="5ViKv1JCg8p07AZtkxQX-11" edge="1">
          <mxGeometry width="50" height="50" relative="1" as="geometry">
            <mxPoint x="510" y="630" as="sourcePoint" />
            <mxPoint x="560" y="580" as="targetPoint" />
          </mxGeometry>
        </mxCell>
        <mxCell id="5ViKv1JCg8p07AZtkxQX-35" value="" style="endArrow=classic;html=1;rounded=0;exitX=0.563;exitY=0.997;exitDx=0;exitDy=0;exitPerimeter=0;entryX=0.5;entryY=1;entryDx=0;entryDy=0;" parent="1" source="5ViKv1JCg8p07AZtkxQX-11" target="5ViKv1JCg8p07AZtkxQX-9" edge="1">
          <mxGeometry width="50" height="50" relative="1" as="geometry">
            <mxPoint x="550" y="680" as="sourcePoint" />
            <mxPoint x="80" y="560" as="targetPoint" />
            <Array as="points">
              <mxPoint x="568" y="560" />
              <mxPoint x="90" y="560" />
            </Array>
          </mxGeometry>
        </mxCell>
        <mxCell id="5ViKv1JCg8p07AZtkxQX-38" value="301/302 redirect" style="edgeLabel;html=1;align=center;verticalAlign=middle;resizable=0;points=[];" parent="5ViKv1JCg8p07AZtkxQX-35" vertex="1" connectable="0">
          <mxGeometry x="-0.0621" relative="1" as="geometry">
            <mxPoint x="-16" as="offset" />
          </mxGeometry>
        </mxCell>
        <mxCell id="5ViKv1JCg8p07AZtkxQX-36" value="" style="endArrow=classic;html=1;rounded=0;exitX=0.563;exitY=0.997;exitDx=0;exitDy=0;exitPerimeter=0;entryX=0.5;entryY=1;entryDx=0;entryDy=0;" parent="1" edge="1">
          <mxGeometry width="50" height="50" relative="1" as="geometry">
            <mxPoint x="568" y="410" as="sourcePoint" />
            <mxPoint x="90" y="410" as="targetPoint" />
            <Array as="points">
              <mxPoint x="568" y="440" />
              <mxPoint x="90" y="440" />
            </Array>
          </mxGeometry>
        </mxCell>
        <mxCell id="5ViKv1JCg8p07AZtkxQX-37" value="201 created" style="edgeLabel;html=1;align=center;verticalAlign=middle;resizable=0;points=[];" parent="5ViKv1JCg8p07AZtkxQX-36" vertex="1" connectable="0">
          <mxGeometry x="0.0268" y="4" relative="1" as="geometry">
            <mxPoint as="offset" />
          </mxGeometry>
        </mxCell>
        <mxCell id="5ViKv1JCg8p07AZtkxQX-41" value="Redis" style="shape=cylinder3;whiteSpace=wrap;html=1;boundedLbl=1;backgroundOutline=1;size=15;" parent="1" vertex="1">
          <mxGeometry x="710" y="340" width="60" height="190" as="geometry" />
        </mxCell>
        <mxCell id="5ViKv1JCg8p07AZtkxQX-42" value="" style="endArrow=classic;html=1;rounded=0;entryX=0.007;entryY=0.327;entryDx=0;entryDy=0;entryPerimeter=0;" parent="1" target="5ViKv1JCg8p07AZtkxQX-4" edge="1">
          <mxGeometry width="50" height="50" relative="1" as="geometry">
            <mxPoint x="770" y="402" as="sourcePoint" />
            <mxPoint x="850" y="370" as="targetPoint" />
          </mxGeometry>
        </mxCell>
        <mxCell id="5ViKv1JCg8p07AZtkxQX-43" value="" style="endArrow=classic;html=1;rounded=0;exitX=0.02;exitY=0.668;exitDx=0;exitDy=0;exitPerimeter=0;" parent="1" source="5ViKv1JCg8p07AZtkxQX-4" edge="1">
          <mxGeometry width="50" height="50" relative="1" as="geometry">
            <mxPoint x="770" y="620" as="sourcePoint" />
            <mxPoint x="770" y="467" as="targetPoint" />
          </mxGeometry>
        </mxCell>
        <mxCell id="5ViKv1JCg8p07AZtkxQX-45" value="Key Cache" style="shape=cylinder3;whiteSpace=wrap;html=1;boundedLbl=1;backgroundOutline=1;size=15;" parent="1" vertex="1">
          <mxGeometry x="500" y="270" width="120" height="60" as="geometry" />
        </mxCell>
        <mxCell id="5ViKv1JCg8p07AZtkxQX-46" value="" style="endArrow=classic;html=1;rounded=0;exitX=0.5;exitY=1;exitDx=0;exitDy=0;entryX=0.5;entryY=0;entryDx=0;entryDy=0;entryPerimeter=0;" parent="1" source="5ViKv1JCg8p07AZtkxQX-18" target="5ViKv1JCg8p07AZtkxQX-45" edge="1">
          <mxGeometry width="50" height="50" relative="1" as="geometry">
            <mxPoint x="680" y="340" as="sourcePoint" />
            <mxPoint x="730" y="290" as="targetPoint" />
          </mxGeometry>
        </mxCell>
        <mxCell id="5ViKv1JCg8p07AZtkxQX-47" value="" style="endArrow=classic;html=1;rounded=0;exitX=0.5;exitY=1;exitDx=0;exitDy=0;exitPerimeter=0;entryX=0.5;entryY=0;entryDx=0;entryDy=0;" parent="1" source="5ViKv1JCg8p07AZtkxQX-45" target="5ViKv1JCg8p07AZtkxQX-5" edge="1">
          <mxGeometry width="50" height="50" relative="1" as="geometry">
            <mxPoint x="640" y="340" as="sourcePoint" />
            <mxPoint x="690" y="290" as="targetPoint" />
          </mxGeometry>
        </mxCell>
        <mxCell id="5ViKv1JCg8p07AZtkxQX-48" value="Cleanup Service" style="rounded=1;whiteSpace=wrap;html=1;" parent="1" vertex="1">
          <mxGeometry x="790" y="240" width="120" height="60" as="geometry" />
        </mxCell>
        <mxCell id="5ViKv1JCg8p07AZtkxQX-49" value="" style="endArrow=classic;html=1;rounded=0;entryX=0.145;entryY=0;entryDx=0;entryDy=4.35;entryPerimeter=0;" parent="1" target="5ViKv1JCg8p07AZtkxQX-4" edge="1">
          <mxGeometry width="50" height="50" relative="1" as="geometry">
            <mxPoint x="829" y="300" as="sourcePoint" />
            <mxPoint x="1010" y="360" as="targetPoint" />
          </mxGeometry>
        </mxCell>
        <mxCell id="5ViKv1JCg8p07AZtkxQX-50" value="" style="endArrow=classic;html=1;rounded=0;entryX=0.62;entryY=0.997;entryDx=0;entryDy=0;entryPerimeter=0;exitX=0.727;exitY=0.009;exitDx=0;exitDy=0;exitPerimeter=0;" parent="1" source="5ViKv1JCg8p07AZtkxQX-4" target="5ViKv1JCg8p07AZtkxQX-48" edge="1">
          <mxGeometry width="50" height="50" relative="1" as="geometry">
            <mxPoint x="910" y="380" as="sourcePoint" />
            <mxPoint x="960" y="330" as="targetPoint" />
          </mxGeometry>
        </mxCell>
        <mxCell id="5ViKv1JCg8p07AZtkxQX-51" value="&lt;div style=&quot;text-align: left;&quot;&gt;&lt;span style=&quot;background-color: initial;&quot;&gt;Alternatives to cleanup service:&lt;/span&gt;&lt;/div&gt;&lt;div style=&quot;text-align: left;&quot;&gt;&lt;span style=&quot;background-color: initial;&quot;&gt;1. DB&amp;nbsp;Automatic Data Expiration (set TTL when creation in Cassandra)&lt;/span&gt;&lt;/div&gt;&lt;div style=&quot;text-align: left;&quot;&gt;&lt;span style=&quot;background-color: initial;&quot;&gt;2. Passive Delete - Only Delete when the data is access again - bad, could overflow&lt;/span&gt;&lt;/div&gt;" style="text;html=1;strokeColor=none;fillColor=none;align=center;verticalAlign=middle;whiteSpace=wrap;rounded=0;" parent="1" vertex="1">
          <mxGeometry x="920" y="240" width="180" height="110" as="geometry" />
        </mxCell>
        <mxCell id="5ViKv1JCg8p07AZtkxQX-55" value="S3" style="shape=cylinder3;whiteSpace=wrap;html=1;boundedLbl=1;backgroundOutline=1;size=15;" parent="1" vertex="1">
          <mxGeometry x="710" y="550" width="60" height="80" as="geometry" />
        </mxCell>
        <mxCell id="5ViKv1JCg8p07AZtkxQX-56" value="" style="endArrow=none;dashed=1;html=1;dashPattern=1 3;strokeWidth=2;rounded=0;entryX=0.5;entryY=1;entryDx=0;entryDy=0;entryPerimeter=0;exitX=0.5;exitY=0;exitDx=0;exitDy=0;exitPerimeter=0;" parent="1" source="5ViKv1JCg8p07AZtkxQX-55" edge="1">
          <mxGeometry width="50" height="50" relative="1" as="geometry">
            <mxPoint x="640" y="620" as="sourcePoint" />
            <mxPoint x="740" y="530" as="targetPoint" />
          </mxGeometry>
        </mxCell>
        <mxCell id="9Y0DtLVm8XDQwjverHVP-1" value="1. Snowflakes by Twitter&lt;br&gt;timestamp + worker number + sequence number&lt;br&gt;globally unique yet roughly sort by timestamp&lt;br&gt;2.&amp;nbsp;Ticket Server by&amp;nbsp;&lt;span style=&quot;text-align: center;&quot;&gt;Flickr&lt;br&gt;&lt;/span&gt;&lt;span style=&quot;text-align: center;&quot;&gt;Single MySql&amp;nbsp;&lt;/span&gt;" style="text;html=1;strokeColor=none;fillColor=none;align=left;verticalAlign=middle;whiteSpace=wrap;rounded=0;" parent="1" vertex="1">
          <mxGeometry x="600" y="110" width="280" height="80" as="geometry" />
        </mxCell>
        <mxCell id="9Y0DtLVm8XDQwjverHVP-3" value="301 Permanently moved - Reduce server load&lt;br&gt;302 Temporarily moved - Accurate analytics" style="text;html=1;strokeColor=none;fillColor=none;align=center;verticalAlign=middle;whiteSpace=wrap;rounded=0;" parent="1" vertex="1">
          <mxGeometry x="190" y="570" width="290" height="40" as="geometry" />
        </mxCell>
      </root>
    </mxGraphModel>
  </diagram>
</mxfile>
